<svg xmlns="http://www.w3.org/2000/svg" viewBox="0 0 652 712"><path d="M2957.56 2738.21c136.14-152.5 150.64-606.61 492.97-425.89 205.75 108.37 203.13 566.42-71.58 731.89-222 131.09-343.65-45.9-424.03-263.29-6.14-16.91-6.8-33.92 2.64-42.71M2425.67 2810.78c-143.17-118.58-241.43-443.78-504.83-333.44-212.51 108.37-232.98 529.65 133.51 724.53 255.59 117.48 385.37-115.39 386.91-362.32 0-8.57-8.45-21.52-15.59-28.77M2778.81 1981.18c141.42 14.72 109.58 145.7 2.42 178.53-95.52 28.54-241.16 47.11-343.49 45.24-181.81-4.17-177.2-143.06-82.67-166.45 71.26-24.15 117.59-33.38 179.52-113.09 56.48-109.46 31.23 32.94 244.22 55.77M3445.71 4327.14c177.86 295.45 486.37 238.36 641.62 90.8 169.96-159.86 197.41-344.75 131.97-474.97-88.94-174.35-315.98-386.25-463.77-181.16-65.43 90.47-204.42 198.73-279.96 229.91-116.16 49.08-138.35 154.04-29.86 335.42" style="fill:#231f20;fill-opacity:1;fill-rule:nonzero;stroke:none" transform="matrix(.13333 0 0 -.13333 0 637.613)"/><path d="M2791.11 1673.11c-77.5-204.88-479.41-134.61-491.81 63.46 0 7.91 10.64 6.37 15.48 5.27 178.96-41.94 348.97-61.71 464.26-61.27 4.17 0 13.83 2.42 12.07-7.46zm1361.44 1350.56c-16.03 52.26-42.16 49.52-40.85 6.16 14.28-538.76-306.98-1116.06-996.04-1119.9-175.88-.33-123.19-282.28-444.22-140.54-231.72 156.02-364.13-151.39-529.04 179.63-35.79 95.41-90.36 133.39-160.51 150.74-679.79 168.53-896.63 1104.31-297.44 1859.9 118.58-70.82 161.95-81.68 288.43 34.26 65.66 60.93 176.55 128.24 236.93 150.42 143.84 55.11 222.01 116.37 97.5 391.3-160.07 356.6-487.49 256.03-637.3 132.41-168.64-139.33-287.43-363.86-69.71-628.24-609.296-410.84-713.554-915.57-699.495-1354.18 14.492-466.53-105.02-426.88 43.925-901.63 13.329-41.5-16.035-40.62-38.332-27.23-635.039 406.46-977.976 1646.03 11.426 2329.37 21.953 19.99 13.012 45.9-68.176-1.75-856.5-452.9-935.226-1330.26-793.203-1921.16 69.496-286.13-36.07-338.82 74.93-714.86 254.883-783.819 472.168-845.518 779.098-868.358 558.787 0 179.837 308.078 200.427 695.208 0 22.61 27.38 33.6 43.21-13.07C1461.63 572.539 1678.64-54.809 2487.15 3.809c467.77 61.05 208.22 293.371 179.67 425.121-344.35 1141.63 490.79 1410.84 254.51 297.539C2765.42 88.801 3258.4 152.801 3605.78 381.5c358.36 235.18 806.1 1787.65 546.77 2642.17" style="fill:#231f20;fill-opacity:1;fill-rule:nonzero;stroke:none" transform="matrix(.13333 0 0 -.13333 0 637.613)"/><path d="M847.723 468.02c-98.653 0-179.348-80.372-179.348-178.969 0-99.02 80.695-179.61 179.348-179.61 99.367 0 178.907 80.59 178.907 179.61 0 98.597-79.54 178.969-178.907 178.969zM997.59 289.051c0-82.781-67.465-149.531-149.867-149.531-82.399 0-149.321 66.75-149.321 149.531 0 82.129 66.922 149.219 149.321 149.219 82.402 0 149.867-67.09 149.867-149.219" style="fill:#231f20;fill-opacity:1;fill-rule:nonzero;stroke:none" transform="matrix(.13333 0 0 -.13333 0 637.613)"/><path d="M898.992 261.172c-3.449-21.75-21.785-36.891-46.601-36.891-34.371 0-56.328 30.52-56.328 65.219 0 36.449 19.652 63.559 56.156 63.559 24.152 0 41.836-13.93 46.773-35.239h25.153c-4.399 39.532-35.415 61.7-72.747 61.7-53.41 0-84.207-38.872-84.207-90.02 0-51.16 33.368-90.25 85.2-90.25 36.339 0 65.433 23.281 72.785 61.922h-26.184" style="fill:#231f20;fill-opacity:1;fill-rule:nonzero;stroke:none" transform="matrix(.13333 0 0 -.13333 0 637.613)"/></svg>
